<?xml version="1.0" encoding="UTF-8"?>
<svg aria-label="Grammatica logo" role="img" version="1.1" viewBox="0 0 230 70" xmlns="http://www.w3.org/2000/svg">
  <title>Grammatica logo</title>
  <g transform="matrix(.85446 0 0 .85446 -11.555 -.24584)" fill="#4b3fdd" aria-label="G">
    <path d="m79.062 57.781q-2.125 2.7812-6.3438 4.8438-4.2188 2.0312-10.875 2.0312-8.25 0-13.5-5.1875t-5.25-13.469v-9.5q0-8.25 5.0938-13.438 5.0938-5.2188 13.094-5.2188 8.3438 0 12.781 3.9688 4.4375 3.9375 4.2812 10.531l-0.0625 0.1875h-8.5938q0-3.625-2.0938-5.625-2.0938-2.0312-6.0938-2.0312-4.1875 0-6.75 3.25-2.5625 3.2188-2.5625 8.3125v9.5625q0 5.1562 2.625 8.4062t7.0312 3.25q3.25 0 5.125-0.65625 1.9062-0.65625 2.9375-1.6562v-8.8125h-8.75v-6.3125h17.906z"/>
  </g>
  <g transform="matrix(.59761 0 0 .59761 13.188 10.831)" aria-label="Grammatica">
    <path d="m121.03 55.547q-1.2188 1.9453-3.8906 3.4453-2.6484 1.5-6.8438 1.5-5.3438 0-8.625-3.2578-3.2578-3.2578-3.2578-9.2812v-10.125q0-5.9297 3.1641-9.1875t8.4141-3.2578q5.1797 0 7.9922 2.6719t2.7188 7.3125l-0.0469 0.14062h-4.4766q0-3.0703-1.5703-4.7578-1.5469-1.7109-4.5234-1.7109-3.2109 0-5.0625 2.25-1.8281 2.2266-1.8281 6.4922v10.172q0 4.3594 1.8984 6.6562 1.9219 2.2734 5.2031 2.2734 2.4141 0 3.8438-0.75 1.4531-0.75 2.1094-1.8281v-7.9453h-6.2812v-3.4688h11.062z"/>
    <path d="m135.7 38.602-2.0625-0.11719q-1.5 0-2.5078 0.91406-0.98438 0.89062-1.5234 2.5312v18.07h-4.7812v-25.359h4.3828l0.32813 3.75q0.84375-1.9922 2.1562-3.0938 1.3125-1.125 3.0234-1.125 0.44531 0 0.82031 0.09375 0.39844 0.07031 0.70312 0.1875z"/>
    <path d="m150.76 60q-0.30469-1.1484-0.49219-2.0391-0.16406-0.91406-0.21093-1.8047-1.0078 1.875-2.6719 3.1172-1.6406 1.2188-3.75 1.2188-3.3984 0-5.2266-2.0156-1.8047-2.0156-1.8047-5.5078 0-3.5859 2.5078-5.6484 2.5312-2.0625 7.0312-2.0625h3.8906v-2.6016q0-2.3203-1.0312-3.6094-1.0312-1.3125-2.9531-1.3125-1.7344 0-2.7656 1.125-1.0078 1.125-1.0078 2.8828l-4.5469 0.02344-0.0469-0.14062q-0.14063-2.9531 2.2969-5.2031t6.375-2.25q3.7734 0 6.1172 2.2266 2.3438 2.2031 2.3438 6.3047v11.766q0 1.4531 0.1875 2.8359 0.1875 1.3594 0.58594 2.6953zm-6.1406-3.1641q1.9453 0 3.4453-1.1953 1.5-1.2188 1.9688-2.9297v-4.5h-3.9609q-2.2031 0-3.4453 1.4062-1.2422 1.3828-1.2422 3.3516 0 1.7578 0.84375 2.8125t2.3906 1.0547z"/>
    <path d="m162.61 34.641 0.25782 3.4453q1.0547-1.875 2.6719-2.8828 1.6406-1.0312 3.7969-1.0312 2.1094 0 3.6562 1.1719 1.5469 1.1484 2.3203 3.5156 1.0078-2.2031 2.6719-3.4453 1.6875-1.2422 3.9609-1.2422 3.3047 0 5.1797 2.6953 1.8984 2.6719 1.8984 8.1562v14.977h-4.7812v-15q0-3.9609-0.98438-5.5312-0.98437-1.5938-2.9297-1.5938-1.6406 0-2.7656 1.2188-1.1016 1.2188-1.6172 3.2109 0.0234 0.42188 0.0469 0.89062 0.0234 0.44531 0.0234 0.91406v15.891h-4.7578v-15q0-3.8203-1.0078-5.4609-1.0078-1.6641-2.9297-1.6641-1.5469 0-2.625 0.84375t-1.6875 2.3203v18.961h-4.7812v-25.359z"/>
    <path d="m196.87 34.641 0.25781 3.4453q1.0547-1.875 2.6719-2.8828 1.6406-1.0312 3.7969-1.0312 2.1094 0 3.6562 1.1719 1.5469 1.1484 2.3203 3.5156 1.0078-2.2031 2.6719-3.4453 1.6875-1.2422 3.9609-1.2422 3.3047 0 5.1797 2.6953 1.8984 2.6719 1.8984 8.1562v14.977h-4.7812v-15q0-3.9609-0.98438-5.5312-0.98437-1.5938-2.9297-1.5938-1.6406 0-2.7656 1.2188-1.1016 1.2188-1.6172 3.2109 0.0234 0.42188 0.0469 0.89062 0.0234 0.44531 0.0234 0.91406v15.891h-4.7578v-15q0-3.8203-1.0078-5.4609-1.0078-1.6641-2.9297-1.6641-1.5469 0-2.625 0.84375t-1.6875 2.3203v18.961h-4.7812v-25.359z"/>
    <path d="m239.94 60q-0.30469-1.1484-0.49219-2.0391-0.16406-0.91406-0.21094-1.8047-1.0078 1.875-2.6719 3.1172-1.6406 1.2188-3.75 1.2188-3.3984 0-5.2266-2.0156-1.8047-2.0156-1.8047-5.5078 0-3.5859 2.5078-5.6484 2.5312-2.0625 7.0312-2.0625h3.8906v-2.6016q0-2.3203-1.0312-3.6094-1.0312-1.3125-2.9531-1.3125-1.7344 0-2.7656 1.125-1.0078 1.125-1.0078 2.8828l-4.5469 0.02344-0.0469-0.14062q-0.14062-2.9531 2.2969-5.2031t6.375-2.25q3.7734 0 6.1172 2.2266 2.3438 2.2031 2.3438 6.3047v11.766q0 1.4531 0.1875 2.8359 0.1875 1.3594 0.58593 2.6953zm-6.1406-3.1641q1.9453 0 3.4453-1.1953 1.5-1.2188 1.9688-2.9297v-4.5h-3.9609q-2.2031 0-3.4453 1.4062-1.2422 1.3828-1.2422 3.3516 0 1.7578 0.84375 2.8125t2.3906 1.0547z"/>
    <path d="m253.55 28.336v6.3047h3.9609v3.3984h-3.9609v15.094q0 1.9688 0.58594 2.8125 0.60938 0.82031 1.5938 0.82031 0.39844 0 0.75-0.07031t0.82031-0.21094l0.49219 3.2812q-0.67969 0.32812-1.5234 0.51562-0.82031 0.21094-1.7109 0.21094-2.7422 0-4.2656-1.7578-1.5234-1.7812-1.5234-5.6016v-15.094h-3.3516v-3.3984h3.3516v-6.3047z"/>
    <path d="m264.91 60h-4.7812v-25.359h4.7812zm0-28.765h-4.7812v-4.5469h4.7812z"/>
    <path d="m277.53 56.883q1.7578 0 2.9297-1.3594 1.1953-1.3594 1.1953-3.6797h4.2891l0.0469 0.14062q0.0937 3.5859-2.4141 6.0469-2.5078 2.4609-6.0469 2.4609-4.6875 0-7.2422-3.5625-2.5547-3.5859-2.5547-9.1406v-0.89062q0-5.5312 2.5547-9.1172 2.5547-3.6094 7.2422-3.6094 3.7969 0 6.1641 2.5781 2.3906 2.5547 2.3203 6.6562l-0.0469 0.11719h-4.3125q0-2.5312-1.1484-4.1016-1.125-1.5938-2.9766-1.5938-2.6719 0-3.8672 2.5781-1.1719 2.5781-1.1719 6.4922v0.89062q0 3.9844 1.1719 6.5391t3.8672 2.5547z"/>
    <path d="m301.62 60q-0.30469-1.1484-0.49219-2.0391-0.16406-0.91406-0.21094-1.8047-1.0078 1.875-2.6719 3.1172-1.6406 1.2188-3.75 1.2188-3.3984 0-5.2266-2.0156-1.8047-2.0156-1.8047-5.5078 0-3.5859 2.5078-5.6484 2.5312-2.0625 7.0312-2.0625h3.8906v-2.6016q0-2.3203-1.0312-3.6094-1.0312-1.3125-2.9531-1.3125-1.7344 0-2.7656 1.125-1.0078 1.125-1.0078 2.8828l-4.5469 0.02344-0.0469-0.14062q-0.14062-2.9531 2.2969-5.2031t6.375-2.25q3.7734 0 6.1172 2.2266 2.3438 2.2031 2.3438 6.3047v11.766q0 1.4531 0.1875 2.8359 0.1875 1.3594 0.58594 2.6953zm-6.1406-3.1641q1.9453 0 3.4453-1.1953 1.5-1.2188 1.9688-2.9297v-4.5h-3.9609q-2.2031 0-3.4453 1.4062-1.2422 1.3828-1.2422 3.3516 0 1.7578 0.84375 2.8125t2.3906 1.0547z"/>
  </g>
  <path d="m63 28.478c-1.8791 0-0.05737-2.8813-1.6847-3.8209-1.6274-0.93956-3.2118 2.0788-4.1514 0.45142-0.93956-1.6274 2.4666-1.4903 2.4666-3.3695 0-1.8791-3.4062-1.7421-2.4666-3.3695 0.93956-1.6274 2.524 1.391 4.1514 0.45142s-0.19439-3.8209 1.6847-3.8209c1.8791 0 0.05737 2.8813 1.6847 3.8209 1.6274 0.93956 3.2118-2.0788 4.1514-0.45142 0.93956 1.6274-2.4666 1.4903-2.4666 3.3695 0 1.8791 3.4062 1.7421 2.4666 3.3695-0.93956 1.6274-2.524-1.391-4.1514-0.45142-1.6274 0.93956 0.19439 3.8209-1.6847 3.8209z" fill="#1e90ff"/>
</svg>
